<?xml version="1.0" encoding="UTF-8"?>
<svg id="Layer_1" data-name="Layer 1" xmlns="http://www.w3.org/2000/svg" viewBox="0 0 1125 560">
  <defs>
    <style>
      .cls-1 {
        fill: #fff;
      }
    </style>
  </defs>
  <g>
    <path class="cls-1" d="M379.23,96.59c-22.57-4.84-44.93-10.9-66.98-18.16-2.64,14.04-5.28,28.07-7.92,42.11,19.1,6.65,38.42,12.43,57.92,17.32,5.42,1.36,9.32,3.5,11.71,6.52,2.39,3.02,3.36,6.52,2.88,10.53-.48,4-2.25,6.87-5.31,8.55-3.06,1.68-7.34,1.84-12.79,.42-19.9-5.2-39.63-11.3-59.12-18.3-3.4,18.08-6.8,36.16-10.2,54.24-1.29,6.89-3.99,11.34-8.12,13.28-4.13,1.94-8.95,1.79-14.41-.5-5.54-2.32-9.69-5.94-12.43-10.75-2.74-4.81-3.34-10.54-1.86-17.17,9.15-41.13,18.31-82.27,27.46-123.4,1.04-4.67,2.59-8.21,4.63-10.64,2.04-2.43,4.68-3.77,7.93-4.06,3.24-.28,7.16,.38,11.78,1.95,25.65,8.75,51.76,15.8,78.17,21.15,5.36,1.08,9.2,3.06,11.54,6.03,2.34,2.97,3.3,6.46,2.86,10.5-.45,4.11-2.14,7.17-5.09,9.15-2.94,1.97-7.18,2.4-12.66,1.23Z"/>
    <path class="cls-1" d="M403.44,232.96c4.28-46.18,8.56-92.36,12.84-138.54,.67-7.2,2.74-12.35,6.2-15.53,3.45-3.18,7.63-4.47,12.58-3.89,5.11,.59,9.11,2.81,12.05,6.73,2.94,3.92,4.2,9.59,3.73,17-2.98,47.02-5.97,94.03-8.95,141.05-.47,7.41-2.62,12.68-6.5,15.74-3.88,3.06-8.78,4.07-14.65,2.99-5.61-1.04-10.08-3.79-13.37-8.17-3.3-4.38-4.58-10.18-3.91-17.37Z"/>
    <path class="cls-1" d="M516.58,101.78c-.48,44.72-.95,89.43-1.43,134.15,25.99,1.16,52.01,.9,77.93-.76,6.2-.4,11.02,.73,14.5,3.47,3.48,2.74,5.36,6.39,5.62,10.97,.26,4.66-1.18,8.59-4.36,11.73-3.18,3.14-7.99,4.93-14.41,5.27-31.54,1.71-63.21,1.38-94.82-.99-8.55-.64-14.65-3.03-18.26-6.95-3.61-3.93-5.24-9.87-4.94-17.79,1.78-46.63,3.56-93.26,5.34-139.88,.28-7.43,2.07-12.93,5.32-16.54,3.25-3.62,7.39-5.37,12.45-5.3,5.14,.07,9.27,1.92,12.42,5.63,3.15,3.71,4.7,9.37,4.62,17Z"/>
    <path class="cls-1" d="M693.14,224.73c-14.44-38.98-28.1-77.96-40.95-116.88,3.95,44.21,7.9,88.43,11.86,132.64,.66,7.34-.47,13.1-3.42,17.25-2.95,4.15-7.15,6.59-12.58,7.28-5.26,.67-9.69-.65-13.26-3.88-3.57-3.23-5.59-8.55-6.08-15.91-3.33-50.28-6.67-100.56-10-150.85-.55-8.32,1.01-14.25,4.64-17.83,3.63-3.59,8.67-6,15.15-7.33,3.5-.72,7.01-1.46,10.5-2.24,6.31-1.4,10.94-1.85,13.92-1.22,2.97,.62,5.32,2.46,7.05,5.54,1.73,3.08,3.88,8.26,6.49,15.54,12.01,33.2,24.62,66.42,37.84,99.61,4.34-37.68,8.01-75.68,11.01-113.96,.63-8.38,1.35-14.54,2.19-18.47,.84-3.93,2.56-7.06,5.13-9.4,2.58-2.35,6.94-4.66,13.05-7.04,3.39-1.32,6.77-2.67,10.14-4.06,6.23-2.55,11.4-3.18,15.59-1.79,4.18,1.39,7.06,6.34,8.62,14.9,9.41,51.7,18.83,103.4,28.24,155.1,1.36,7.49,.85,13.7-1.61,18.6-2.45,4.9-6.32,8.3-11.61,10.15-4.96,1.73-9.35,1.22-13.15-1.46-3.81-2.68-6.29-7.77-7.49-15.23-7.21-44.97-14.42-89.95-21.64-134.92-2.26,44.85-5.37,89.38-9.34,133.54-.78,8.61-1.54,14.95-2.25,19.05-.7,4.1-2.51,8.14-5.43,12.09-2.92,3.95-7.36,6.66-13.29,8.06-4.48,1.05-8.4,.91-11.73-.4-3.34-1.3-6.04-3.32-8.11-6.04-2.07-2.72-3.8-5.84-5.2-9.38-1.4-3.53-2.83-7.21-4.28-11.05Z"/>
  </g>
  <g>
    <path class="cls-1" d="M57.24,442.72c-4.21-.44-8.43-.9-12.64-1.38v55.65c0,7.32-1.66,12.53-4.98,15.59-3.32,3.06-7.66,4.25-13.01,3.55-5.76-.76-10.21-3.19-13.37-7.25-3.16-4.06-4.74-9.6-4.74-16.59v-133c0-7.55,1.74-12.77,5.23-15.69,3.48-2.92,9.12-3.89,16.9-2.96,19.57,2.32,39.14,4.22,58.71,5.75,8.1,.63,15.03,1.45,20.79,2.5,5.75,1.05,10.94,2.72,15.56,5.03,5.59,2.61,10.53,6.14,14.83,10.62,4.3,4.48,7.55,9.59,9.79,15.35,2.23,5.76,3.34,11.81,3.34,18.15,0,12.99-3.75,23.23-11.24,30.61-7.5,7.38-18.86,12.27-34.09,14.43,6.4,3.78,12.52,9.08,18.35,15.93,5.83,6.85,11.04,14.04,15.62,21.61,4.58,7.57,8.14,14.36,10.7,20.39,2.55,6.03,3.83,10.15,3.83,12.37,0,2.3-.75,4.54-2.25,6.73-1.5,2.19-3.54,3.87-6.14,5.04-2.6,1.17-5.59,1.66-8.99,1.47-4.05-.23-7.46-1.37-10.21-3.41-2.75-2.03-5.13-4.54-7.11-7.52-1.98-2.98-4.68-7.36-8.08-13.13-4.82-8.17-9.64-16.36-14.46-24.56-5.18-9.02-9.83-15.96-13.92-20.82-4.09-4.86-8.25-8.31-12.46-10.36-4.22-2.05-9.52-3.4-15.92-4.07Zm20.66-70.88c-11.1-.97-22.2-2.06-33.31-3.28v47.61c10.78,1.21,21.56,2.3,32.33,3.28,8.67,.78,15.96,.64,21.88-.37,5.91-1.01,10.43-3.19,13.55-6.5,3.12-3.31,4.68-8.05,4.68-14.22,0-4.82-1.26-9.15-3.77-12.99-2.51-3.84-6-6.82-10.45-8.95-4.22-2.04-12.52-3.5-24.92-4.58Z"/>
    <path class="cls-1" d="M294.34,506.51c-2.84-7.3-5.67-14.6-8.51-21.9-24.15,.36-48.3,.4-72.45,.01-2.84,7.43-5.67,14.85-8.51,22.26-3.32,8.67-6.16,14.5-8.51,17.49-2.35,2.99-6.2,4.42-11.55,4.25-4.54-.15-8.55-1.92-12.03-5.31-3.49-3.39-5.23-7.15-5.23-11.27,0-2.38,.41-4.82,1.22-7.33,.81-2.51,2.15-5.98,4.01-10.44,15.19-37.2,30.39-74.67,45.58-112.41,1.29-3.25,2.86-7.16,4.68-11.72,1.83-4.56,3.77-8.36,5.83-11.38,2.07-3.02,4.78-5.47,8.15-7.34,3.36-1.88,7.52-2.83,12.46-2.87,5.02-.04,9.22,.85,12.58,2.68,3.36,1.83,6.08,4.2,8.14,7.12,2.07,2.92,3.81,6.06,5.23,9.42,1.42,3.37,3.22,7.86,5.41,13.49,15.52,37.45,31.04,74.86,46.55,112.25,3.64,8.53,5.47,14.76,5.47,18.68,0,4.08-1.72,7.88-5.16,11.37-3.45,3.49-7.6,5.3-12.46,5.41-2.84,.07-5.27-.38-7.29-1.34-2.03-.96-3.73-2.28-5.11-3.97-1.38-1.69-2.85-4.3-4.44-7.83-1.58-3.52-2.94-6.64-4.07-9.33Zm-71.47-48.36c17.75,.18,35.49,.13,53.24-.09-8.95-24.02-17.91-48.05-26.86-72.09-8.79,24.15-17.58,48.21-26.38,72.19Z"/>
    <path class="cls-1" d="M445.74,373.1c-13.13,.84-26.26,1.63-39.38,2.37v128.36c0,7.39-1.66,12.96-4.98,16.69-3.32,3.73-7.61,5.72-12.88,5.95-5.35,.24-9.71-1.39-13.07-4.86-3.37-3.47-5.04-8.86-5.04-16.15v-128.11c-13.13,.63-26.26,1.19-39.38,1.67-6.16,.22-10.74-.96-13.74-3.55-3-2.58-4.5-6.07-4.5-10.47,0-4.56,1.56-8.2,4.68-10.94,3.12-2.74,7.64-4.22,13.55-4.44,38.25-1.46,76.5-3.61,114.75-6.11,6.24-.41,10.88,.65,13.92,3.19,3.03,2.54,4.56,6.02,4.56,10.45,0,4.43-1.54,8.1-4.62,11.01-3.08,2.9-7.7,4.55-13.86,4.95Z"/>
    <path class="cls-1" d="M595.56,360.57c-27.11,1.96-54.21,3.98-81.32,5.92v43.64c24.96-1.73,49.92-3.52,74.88-5.27,5.51-.39,9.62,.56,12.34,2.85,2.71,2.29,4.07,5.46,4.07,9.53,0,4.06-1.34,7.46-4.01,10.2-2.68,2.74-6.81,4.3-12.4,4.69-24.96,1.72-49.92,3.47-74.88,5.16v50.56c28.04-1.82,56.08-3.72,84.11-5.56,5.67-.37,9.95,.67,12.83,3.12,2.87,2.46,4.31,5.88,4.31,10.27,0,4.23-1.44,7.75-4.31,10.57-2.88,2.82-7.15,4.41-12.83,4.78-32.7,2.1-65.4,4.27-98.09,6.31-7.86,.49-13.51-.9-16.96-4.16-3.45-3.26-5.17-8.76-5.17-16.5v-133.34c0-5.16,.77-9.43,2.31-12.8,1.54-3.37,3.95-5.92,7.23-7.65,3.28-1.72,7.48-2.77,12.58-3.14,31.77-2.29,63.53-4.71,95.3-7.05,5.75-.43,10.03,.54,12.82,2.89,2.8,2.35,4.2,5.61,4.19,9.75,0,4.23-1.4,7.72-4.19,10.48-2.8,2.76-7.07,4.35-12.82,4.76Z"/>
    <path class="cls-1" d="M685.22,429.07c-4.21,.25-8.43,.5-12.64,.76v57.59c0,7.58-1.66,13.26-4.98,17.04-3.32,3.78-7.66,5.82-13.01,6.14-5.75,.34-10.21-1.27-13.37-4.81-3.16-3.55-4.74-8.94-4.74-16.19v-137.66c0-7.81,1.74-13.59,5.23-17.33,3.48-3.74,9.12-5.89,16.9-6.42,19.57-1.34,39.14-2.6,58.71-3.74,8.1-.47,15.03-.51,20.79-.12,5.75,.39,10.94,1.53,15.56,3.43,5.59,2.1,10.53,5.27,14.83,9.5,4.29,4.23,7.56,9.24,9.79,15.01,2.23,5.77,3.34,11.94,3.34,18.5,0,13.45-3.75,24.33-11.24,32.67-7.49,8.34-18.86,14.51-34.09,18.6,6.4,3.12,12.52,7.92,18.35,14.38,5.84,6.46,11.04,13.4,15.62,20.81,4.57,7.41,8.14,14.13,10.7,20.15,2.55,6.02,3.83,10.19,3.83,12.48,0,2.38-.75,4.76-2.25,7.15-1.5,2.39-3.55,4.3-6.14,5.74-2.59,1.44-5.59,2.22-8.99,2.34-4.05,.15-7.46-.69-10.21-2.5-2.76-1.81-5.12-4.16-7.11-7.02-1.99-2.86-4.68-7.09-8.08-12.67-4.82-7.89-9.64-15.76-14.46-23.62-5.19-8.66-9.82-15.2-13.92-19.64-4.09-4.44-8.25-7.4-12.46-8.88-4.22-1.48-9.52-2.03-15.92-1.66Zm20.66-76.64c-11.1,.66-22.2,1.35-33.31,2.07v49.28c10.78-.67,21.56-1.32,32.33-1.93,8.67-.49,15.96-1.64,21.88-3.46,5.91-1.82,10.43-4.62,13.55-8.42,3.12-3.79,4.68-8.88,4.68-15.27,0-4.99-1.26-9.33-3.77-13.01-2.51-3.68-6-6.34-10.45-7.98-4.21-1.57-12.52-2.02-24.92-1.29Z"/>
    <path class="cls-1" d="M925.72,347.31c-27.11-.46-54.21-.37-81.32,.14,0,14.81,0,29.62,0,44.43,24.96-.41,49.92-.47,74.88-.06,5.51,.09,9.62,1.44,12.34,4.02,2.71,2.58,4.07,5.95,4.07,10.08,0,4.14-1.33,7.47-4.01,10.01-2.67,2.54-6.81,3.75-12.4,3.65-24.96-.44-49.92-.42-74.88-.05,0,17.15,0,34.31,0,51.46,28.04-.35,56.08-.24,84.11,.46,5.67,.14,9.95,1.62,12.83,4.39,2.87,2.78,4.31,6.41,4.31,10.87,0,4.3-1.44,7.75-4.31,10.34-2.88,2.59-7.16,3.8-12.83,3.65-32.7-.86-65.4-.93-98.09-.4-7.87,.13-13.51-1.52-16.96-4.97-3.45-3.45-5.17-9.12-5.17-17v-135.73c0-5.25,.77-9.57,2.31-12.95,1.54-3.38,3.95-5.87,7.23-7.49,3.28-1.62,7.47-2.5,12.58-2.63,31.77-.82,63.53-1.08,95.3-.59,5.75,.09,10.03,1.48,12.82,4.15,2.8,2.67,4.19,6.11,4.19,10.33,0,4.3-1.4,7.72-4.19,10.26-2.79,2.54-7.07,3.75-12.82,3.65Z"/>
    <path class="cls-1" d="M1013.91,341.43c23.14,37.38,46.27,75.38,69.41,114.09v-108.98c0-7.08,1.48-12.23,4.44-15.44,2.96-3.2,6.94-4.52,11.97-3.9,5.19,.63,9.28,2.94,12.28,6.88,3,3.94,4.5,9.47,4.5,16.56v144.36c0,16.12-6.49,23.19-19.45,21.49-3.24-.42-6.16-1.27-8.75-2.55-2.59-1.28-5.02-3.09-7.29-5.45-2.27-2.35-4.38-5.03-6.32-8.04-1.94-3.01-3.89-6.08-5.83-9.21-22.57-38.01-45.14-75.37-67.71-112.14v106.89c0,6.97-1.58,12.13-4.74,15.5-3.16,3.36-7.21,4.9-12.16,4.62-5.11-.29-9.2-2.3-12.28-6.06-3.08-3.76-4.62-9.06-4.62-15.94v-140.49c0-5.96,.65-10.61,1.94-13.96,1.54-3.67,4.09-6.61,7.66-8.82,3.57-2.21,7.41-3.22,11.55-3.01,3.24,.16,6.02,.84,8.33,2.05,2.31,1.2,4.33,2.77,6.08,4.7,1.74,1.93,3.52,4.4,5.35,7.41,1.82,3.02,3.7,6.17,5.65,9.45Z"/>
  </g>
</svg>